<svg width="50" height="50" viewBox="0 0 50 50" fill="none" xmlns="http://www.w3.org/2000/svg">
<path fill-rule="evenodd" clip-rule="evenodd" d="M25 50C38.8071 50 50 38.8071 50 25C50 11.1929 38.8071 0 25 0C11.1929 0 0 11.1929 0 25C0 38.8071 11.1929 50 25 50Z" fill="#F2F5F7"/>
<mask id="mask0_38_408" style="mask-type:alpha" maskUnits="userSpaceOnUse" x="0" y="0" width="50" height="50">
<path fill-rule="evenodd" clip-rule="evenodd" d="M25 50C38.8071 50 50 38.8071 50 25C50 11.1929 38.8071 0 25 0C11.1929 0 0 11.1929 0 25C0 38.8071 11.1929 50 25 50Z" fill="white"/>
</mask>
<g mask="url(#mask0_38_408)">
<g opacity="0.6">
<path fill-rule="evenodd" clip-rule="evenodd" d="M16.4102 19.7401C14.3397 19.0554 12.8447 17.0942 12.8447 14.7816L14.6769 15.051C14.1335 14.2259 13.8171 13.2364 13.8171 12.1725L16.4102 12.5537V11.194L30.8319 13.3844C32.4173 13.6252 33.5895 14.9961 33.5895 16.6093V22.3652C34.7079 22.6549 35.5343 23.6764 35.5343 24.8922C35.5343 26.108 34.7079 27.1295 33.5895 27.4192V28.4798H33.576C33.4118 31.4397 31.7675 34.0019 29.3757 35.4295V36.9596H32.2929C33.9979 36.9596 35.3954 38.2842 35.5246 39.9664C38.6483 40.4343 41.0446 43.1445 41.0446 46.4179V55.2239H8.95508V46.4179C8.95508 43.031 11.5204 40.247 14.8026 39.9259C14.9509 38.263 16.3397 36.9596 18.0309 36.9596H20.624V35.4295C18.2322 34.0019 16.5879 31.4397 16.4238 28.4798H16.4102V27.5014C14.9781 27.5014 13.8171 26.3332 13.8171 24.8922C13.8171 23.4512 14.9781 22.283 16.4102 22.283V19.7401Z" fill="#46877F"/>
</g>
</g>
</svg>
