<svg width="202" height="95" viewBox="0 0 202 95" fill="none" xmlns="http://www.w3.org/2000/svg">
<path d="M18.4218 68.9467C20.1706 70.9977 21.0425 73.6852 21.0375 77.0094C21.0326 80.3336 20.1532 83.0212 18.3995 85.0722C17.5883 86.0555 16.5655 86.8429 15.4075 87.3756C14.2494 87.9084 12.9859 88.1726 11.7115 88.1487C8.93221 88.1487 6.82921 87.2272 5.40243 85.3843V95.0002H0V66.487H4.99372V69.2513C5.7226 68.1503 6.72671 67.259 7.90642 66.6659C9.08613 66.0728 10.4004 65.7985 11.7189 65.8702C12.9964 65.8402 14.264 66.1016 15.4255 66.6347C16.5869 67.1677 17.6116 67.9584 18.4218 68.9467ZM14.1935 81.7431C15.1961 80.3753 15.695 78.703 15.6054 77.0094C15.6885 75.3189 15.2018 73.6494 14.2232 72.2684C13.7897 71.6982 13.2265 71.2396 12.5803 70.9307C11.9341 70.6219 11.2235 70.4716 10.5076 70.4923C9.77343 70.4735 9.0449 70.6254 8.37947 70.9362C7.71404 71.247 7.12991 71.7081 6.67315 72.2832C5.71248 73.6721 5.19786 75.3207 5.19786 77.0094C5.19786 78.6982 5.71248 80.3468 6.67315 81.7356C7.13253 82.3015 7.71599 82.754 8.37835 83.0581C9.04072 83.3622 9.76419 83.5098 10.4928 83.4894C11.203 83.5065 11.9074 83.3575 12.5498 83.0543C13.1923 82.7512 13.7551 82.3022 14.1935 81.7431Z" fill="white"/>
<path d="M43.1027 73.3376V87.5682H38.2873V85.3835C36.8804 87.3057 34.6114 88.2692 31.4804 88.2742C29.535 88.3628 27.6141 87.8121 26.0111 86.7062C25.3267 86.1893 24.7793 85.5127 24.4166 84.7355C24.0539 83.9583 23.887 83.1041 23.9304 82.2476C23.8827 81.3031 24.0687 80.3614 24.4718 79.5059C24.8749 78.6504 25.4828 77.9075 26.2415 77.343C27.7822 76.1838 30.0512 75.344 33.0484 74.8239L37.9975 73.9173V73.4194C38.0209 72.969 37.9375 72.5196 37.7541 72.1076C37.5707 71.6956 37.2926 71.3329 36.9423 71.0488C36.1008 70.4392 35.0741 70.1398 34.0367 70.2017C32.8851 70.1523 31.7425 70.4251 30.7373 70.9894C29.5623 71.7451 28.4755 72.6299 27.4973 73.6274L24.1162 70.5287C25.289 69.0382 26.7875 67.836 28.4968 67.0142C30.206 66.1924 32.0808 65.7728 33.9773 65.7876C36.8903 65.7876 39.1791 66.4638 40.7396 67.8089C41.5288 68.4894 42.152 69.3413 42.5616 70.2995C42.9711 71.2578 43.1562 72.2969 43.1027 73.3376ZM37.9901 78.9927V77.7517L34.4455 78.4948C33.0333 78.7432 31.6643 79.1937 30.3806 79.8324C30.008 80.0266 29.6968 80.3206 29.4815 80.6814C29.2663 81.0423 29.1557 81.4559 29.1619 81.876C29.1541 82.1855 29.2284 82.4915 29.3772 82.763C29.526 83.0345 29.744 83.2617 30.0091 83.4217C30.7288 83.8326 31.5522 84.0262 32.3796 83.979C33.8331 84.041 35.2619 83.5884 36.4147 82.7009C36.9513 82.2506 37.3742 81.6802 37.6492 81.0359C37.9242 80.3917 38.0435 79.6917 37.9975 78.9927H37.9901Z" fill="white"/>
<path d="M59.6543 83.0353L60.2711 87.2785C58.7455 87.8026 57.1432 88.0688 55.5301 88.0662C53.4642 88.0662 51.9507 87.5708 50.9896 86.58C50.0236 85.6065 49.548 84.1129 49.548 82.1213V70.5956H45.7878V66.5085H49.548V59.9691H54.9058V66.4862H59.9441V70.5956H54.9058V81.4897C54.8799 81.7585 54.9109 82.0297 54.9966 82.2858C55.0824 82.5418 55.2211 82.777 55.4037 82.9759C55.8697 83.3081 56.4387 83.4636 57.0088 83.4143C57.9023 83.3905 58.7901 83.2634 59.6543 83.0353Z" fill="white"/>
<path d="M72.6067 70.3281C71.8415 70.2994 71.0805 70.4544 70.3875 70.7802C69.6945 71.106 69.0897 71.5931 68.6236 72.2008C67.6741 73.6203 67.1672 75.2897 67.1672 76.9975C67.1672 78.7054 67.6741 80.3748 68.6236 81.7943C69.0852 82.4003 69.6865 82.8856 70.3761 83.2091C71.0657 83.5326 71.8234 83.6846 72.5844 83.6521C73.5605 83.6569 74.5201 83.4003 75.3636 82.909C76.4734 82.2207 77.4751 81.3718 78.3361 80.3899L81.8882 83.3623C80.7341 84.9136 79.2621 86.2006 77.5707 87.1373C75.996 87.8948 74.2645 88.2691 72.5175 88.2297C71.0775 88.2883 69.641 88.0471 68.2991 87.5214C66.9572 86.9956 65.7392 86.1968 64.7223 85.1755C62.7406 83.1394 61.7498 80.4146 61.7498 77.0013C61.7498 73.5879 62.7555 70.8632 64.7669 68.827C65.7991 67.8035 67.0315 67.004 68.3868 66.4785C69.7422 65.953 71.1914 65.7127 72.6439 65.7728C74.2793 65.7436 75.9025 66.0601 77.4072 66.7017C78.9571 67.4403 80.3402 68.4871 81.472 69.7782L78.128 73.0776C77.2795 72.2158 76.3078 71.4845 75.2447 70.9077C74.4215 70.5147 73.5189 70.3164 72.6067 70.3281Z" fill="white"/>
<path d="M103.509 73.1294V87.5681H98.1437V74.7419C98.2248 73.5803 97.8638 72.4309 97.133 71.5243C96.7581 71.1394 96.3042 70.8405 95.8026 70.6481C95.301 70.4556 94.7636 70.3743 94.2275 70.4096C93.6606 70.3916 93.0962 70.492 92.5703 70.7044C92.0445 70.9168 91.5686 71.2365 91.1733 71.6432C90.7711 72.0738 90.4583 72.5799 90.253 73.1322C90.0476 73.6845 89.9538 74.272 89.9769 74.8608V87.5681H84.619V58.282H89.9769V68.366C90.7022 67.506 91.6156 66.8241 92.6464 66.3732C93.6772 65.9222 94.7978 65.7142 95.9218 65.7651C96.934 65.7065 97.9477 65.8533 98.9017 66.1969C99.8557 66.5404 100.73 67.0735 101.473 67.7641C102.16 68.4724 102.695 69.3137 103.045 70.2363C103.395 71.159 103.553 72.1435 103.509 73.1294Z" fill="white"/>
<path d="M131.773 66.4862H137.302L131.446 87.5683H125.092L123.524 81.8389C122.974 79.7731 122.286 76.9121 121.458 73.256C120.775 76.7238 120.128 79.5848 119.519 81.8389L118.033 87.5683H111.642L105.786 66.4862H111.471L113.165 73.4194C113.829 76.169 114.503 79.2628 115.187 82.7009C115.984 78.911 116.698 75.8172 117.327 73.4194L119.147 66.4862H124.096L125.91 73.4194C126.682 76.3919 127.426 79.513 128.139 82.7827C128.823 79.3148 129.496 76.1937 130.16 73.4194L131.773 66.4862Z" fill="white"/>
<path d="M157.738 68.9017C158.77 69.9761 159.574 71.2483 160.101 72.6416C160.628 74.0349 160.869 75.5205 160.807 77.009C160.869 78.4976 160.63 79.9835 160.102 81.3769C159.575 82.7703 158.77 84.0424 157.738 85.1164C155.601 87.1162 152.784 88.2289 149.857 88.2289C146.93 88.2289 144.113 87.1162 141.976 85.1164C140.944 84.0424 140.139 82.7703 139.612 81.3769C139.084 79.9835 138.845 78.4976 138.907 77.009C138.845 75.5205 139.085 74.0349 139.613 72.6416C140.14 71.2483 140.944 69.9761 141.976 68.9017C144.113 66.9018 146.93 65.7892 149.857 65.7892C152.784 65.7892 155.601 66.9018 157.738 68.9017ZM144.362 77.009C144.265 78.7563 144.792 80.4812 145.848 81.8764C146.347 82.4463 146.963 82.9029 147.653 83.2158C148.343 83.5286 149.092 83.6905 149.85 83.6905C150.607 83.6905 151.356 83.5286 152.046 83.2158C152.737 82.9029 153.352 82.4463 153.851 81.8764C154.834 80.4477 155.36 78.7543 155.36 77.0202C155.36 75.286 154.834 73.5927 153.851 72.1639C153.355 71.5886 152.741 71.127 152.05 70.8106C151.36 70.4942 150.609 70.3304 149.85 70.3304C149.09 70.3304 148.339 70.4942 147.649 70.8106C146.958 71.127 146.344 71.5886 145.848 72.1639C144.795 73.5529 144.263 75.2679 144.347 77.009H144.362Z" fill="white"/>
<path d="M178.052 66.8209L177.101 71.5248C176.229 71.2702 175.327 71.1303 174.419 71.1086C173.766 71.0834 173.118 71.217 172.529 71.4979C171.94 71.7788 171.428 72.1986 171.037 72.7212C170.143 74.0294 169.709 75.5979 169.804 77.1798V87.5834H164.439V66.4865H169.425V69.5852C169.855 68.5515 170.591 67.6738 171.534 67.0696C172.477 66.4654 173.582 66.1634 174.701 66.2041C175.843 66.2411 176.972 66.449 178.052 66.8209Z" fill="white"/>
<path d="M195.094 87.5681L189.149 77.9596L186.176 81.0138V87.5681H180.811V58.282H186.176V75.054L194.262 66.4711H200.637L192.909 74.4893L201.083 87.5681H195.094Z" fill="white"/>
<path d="M166.155 15.8952L100.322 0L48.3044 12.6329L47.4201 12.8484L34.8615 15.8803L34.0515 16.1033V38.1217L34.4231 38.2257L100.56 54.1803L166.697 38.2257L167.069 38.1365V16.133L166.155 15.8952ZM86.4855 42.8479L74.8335 46.5188V26.6257L75.7401 26.8412V26.8784H75.8962L86.4855 29.4198V42.8479ZM73.8526 26.3954V40.024L61.0488 43.3309V23.3189L73.8675 26.3954H73.8526ZM60.0753 36.145L47.8808 39.7491V20.235H48.2078L60.0976 23.0811L60.0753 36.145ZM100.538 31.7309L80.4738 26.8784H120.669L100.538 31.7309ZM87.459 29.6502L99.9284 32.6226V46.2885L87.459 49.5953V29.6502ZM101.147 32.6226L113.349 29.7022V49.5953L101.147 46.3628V32.6226ZM114.323 29.4718L124.979 26.9155H125.975V46.5188L114.323 42.8479V29.4718ZM126.955 26.4474L139.767 23.3783V43.3681L126.955 40.0612V26.4474ZM140.74 23.148L152.734 20.2721H152.942V39.7491L140.74 36.145V23.148ZM124.689 25.9421H76.3866L52.9043 20.2721H148.156L124.689 25.9421ZM60.0753 37.1556V43.4052L48.4233 40.6037L60.0753 37.1556ZM73.8601 41.0198V46.7418L62.4236 43.9774L73.8601 41.0198ZM86.493 43.8585V49.8034L75.8516 47.2322L86.493 43.8585ZM99.9359 47.2917V53.0285L88.6108 50.2939L99.9359 47.2917ZM101.155 47.366L112.346 50.3384L101.155 53.0434V47.366ZM114.323 43.8436L125.075 47.2397L114.323 49.8331V43.8436ZM126.955 41.005L138.533 43.9774L126.941 46.8161L126.955 41.005ZM140.725 37.1556L152.504 40.6334L140.725 43.4721V37.1556ZM100.322 1.0032L120.973 5.98206H79.7604L100.322 1.0032ZM75.7996 6.9481H125.023L148.446 12.6329H52.399L75.7996 6.9481ZM48.3936 13.599H152.481L164.074 16.3931L152.184 19.2615H48.8915L36.9348 16.3485L48.3936 13.599ZM35.025 17.0916L46.9148 19.9377V40.2396L35.025 37.3711V17.0916ZM153.923 40.3213V19.9526L166.08 17.047V37.3711L153.923 40.3213Z" fill="white"/>
</svg>
